# Blender v2.74 (sub 0) OBJ File: 'mushroom.blend'
# www.blender.org
mtllib mushroom.mtl
o mushroom_Cylinder
v 0.784276 0.121837 -1.079463
v 0.000000 5.239145 0.000000
v 0.000000 2.239145 -1.334290
v 0.000000 5.239145 -0.929500
v 0.784276 2.239145 -1.079463
v 0.546347 5.239145 -0.751982
v 1.268985 2.239145 -0.412318
v 0.884007 5.239145 -0.287231
v 1.268985 2.239145 0.412318
v 0.884007 5.239145 0.287231
v 0.784276 2.239145 1.079463
v 0.546346 5.239145 0.751981
v -0.000000 2.239145 1.334290
v -0.000000 5.239145 0.929500
v -0.784276 2.239145 1.079463
v -0.546347 5.239145 0.751981
v -1.268985 2.239145 0.412318
v -0.884007 5.239145 0.287231
v -1.268985 2.239145 -0.412318
v -0.884007 5.239145 -0.287232
v -0.784275 2.239145 -1.079463
v -0.546346 5.239145 -0.751982
v 0.000000 4.880988 -1.500000
v 0.881678 4.880988 -1.213526
v 1.426585 4.880988 -0.463525
v 1.426585 4.880988 0.463526
v 0.881678 4.880988 1.213526
v -0.000000 4.880988 1.500000
v -0.881678 4.880988 1.213525
v -1.426585 4.880988 0.463526
v -1.426585 4.880988 -0.463526
v -0.881677 4.880988 -1.213526
v 1.587322 2.308848 -2.193974
v 2.567082 2.308848 -0.845450
v 2.567082 2.308848 0.821417
v 1.587322 2.308848 2.169941
v 0.002038 2.308848 2.685031
v -1.583247 2.308848 2.169940
v -2.563006 2.308848 0.821417
v -2.563006 2.308848 -0.845450
v -1.583246 2.308848 -2.193974
v 0.002038 2.308848 -2.709064
v -0.007145 3.308391 -2.488029
v 1.480046 3.308391 -2.004811
v 2.399180 3.308391 -0.739731
v 2.399180 3.308391 0.823995
v 1.480045 3.308391 2.089075
v -0.007146 3.308391 2.572292
v -1.494337 3.308391 2.089075
v -2.413471 3.308391 0.823995
v -2.413471 3.308391 -0.739731
v -1.494336 3.308391 -2.004812
v 0.684484 0.000000 -0.942112
v 0.000000 0.000000 0.000000
v 0.000000 0.000000 -1.164514
v 1.107519 0.000000 -0.359855
v 1.107519 0.000000 0.359855
v 0.684484 0.000000 0.942112
v -0.000000 0.000000 1.164514
v -0.684484 0.000000 0.942111
v -1.107519 0.000000 0.359855
v -1.107519 0.000000 -0.359855
v -0.684484 0.000000 -0.942112
v 1.268985 0.121837 -0.412318
v 1.268985 0.121837 0.412318
v 0.784276 0.121837 1.079463
v -0.000000 0.121837 1.334290
v -0.784276 0.121837 1.079463
v -1.268985 0.121837 0.412318
v -1.268985 0.121837 -0.412318
v 0.000000 0.121837 -1.334290
v -0.784275 0.121837 -1.079463
vt 0.328500 0.439325
vt 0.327442 0.413858
vt 0.368753 0.388489
vt 0.738409 0.280008
vt 0.763709 0.246927
vt 0.777876 0.267859
vt 0.783828 0.223318
vt 0.286884 0.467281
vt 0.286048 0.438257
vt 0.739636 0.238041
vt 0.742236 0.206545
vt 0.244240 0.483447
vt 0.243962 0.452366
vt 0.714545 0.245094
vt 0.697872 0.217690
vt 0.201122 0.481648
vt 0.201525 0.450796
vt 0.698206 0.265910
vt 0.668047 0.253497
vt 0.158669 0.462571
vt 0.159577 0.434147
vt 0.697555 0.292727
vt 0.117210 0.433504
vt 0.118266 0.408778
vt 0.713330 0.314327
vt 0.693555 0.340249
vt 0.076053 0.405548
vt 0.076872 0.384379
vt 0.738480 0.322221
vt 0.737930 0.354253
vt 0.034516 0.389382
vt 0.034786 0.370270
vt 0.763073 0.313893
vt 0.781223 0.339733
vt 0.411093 0.391181
vt 0.410701 0.371840
vt 0.453138 0.370270
vt 0.777858 0.293040
vt 0.807195 0.303207
vt 0.369646 0.410257
vt 0.806549 0.260023
vt 0.910441 0.230050
vt 0.905489 0.344044
vt 0.836153 0.432723
vt 0.727848 0.463527
vt 0.665075 0.301489
vt 0.622106 0.425051
vt 0.561634 0.221550
vt 0.630019 0.131193
vt 0.738609 0.098533
vt 0.845137 0.136362
vt 0.382845 0.846383
vt 0.376455 0.833852
vt 0.337453 0.892608
vt 0.346653 0.875451
vt 0.294838 0.949116
vt 0.304246 0.903407
vt 0.247324 0.981793
vt 0.250995 0.919572
vt 0.197436 0.978157
vt 0.191530 0.917774
vt 0.150476 0.939597
vt 0.108348 0.880841
vt 0.099672 0.869630
vt 0.069554 0.824333
vt 0.064191 0.841674
vt 0.032284 0.791657
vt 0.030876 0.825508
vt 0.450636 0.791657
vt 0.413766 0.795292
vt 0.416413 0.827307
vt 0.905201 0.068694
vt 0.749677 0.007038
vt 0.585074 0.049907
vt 0.475377 0.182982
vt 0.560908 0.332694
vt 0.463802 0.360883
vt 0.570059 0.503196
vt 0.733499 0.555462
vt 0.894671 0.503137
vt 0.992594 0.367678
vt 0.435961 0.202142
vt 0.017609 0.202142
vt 0.452868 0.389382
vt 0.140512 0.898697
vt 0.449229 0.825508
vt 0.992594 0.205284
vn 0.186100 -0.798200 -0.572800
vn 0.000000 1.000000 0.000000
vn 0.170200 0.834600 -0.523900
vn 0.487300 -0.798200 -0.354000
vn 0.445700 0.834600 -0.323800
vn 0.602300 -0.798200 0.000000
vn 0.550900 0.834600 0.000000
vn 0.487300 -0.798200 0.354000
vn 0.445700 0.834600 0.323800
vn 0.186100 -0.798200 0.572800
vn 0.170200 0.834600 0.523900
vn -0.186100 -0.798200 0.572800
vn -0.170200 0.834600 0.523900
vn -0.487300 -0.798200 0.354000
vn -0.445700 0.834600 0.323800
vn -0.602300 -0.798200 0.000000
vn -0.550900 0.834600 0.000000
vn -0.487300 -0.798200 -0.354000
vn -0.445700 0.834600 -0.323800
vn -0.186100 -0.798200 -0.572800
vn -0.170200 0.834600 -0.523900
vn -0.265100 0.513800 -0.815900
vn -0.690400 0.521300 -0.501600
vn -0.847000 0.531600 0.000000
vn -0.680700 0.540500 0.494500
vn -0.259100 0.544900 0.797400
vn 0.259400 0.543300 0.798500
vn 0.682900 0.536100 0.496200
vn 0.850500 0.526000 0.000000
vn 0.692600 0.516800 -0.503200
vn 0.265400 0.512000 -0.816900
vn 0.016400 -0.998600 -0.050600
vn 0.043200 -0.998600 -0.031400
vn 0.053600 -0.998600 0.000000
vn 0.043600 -0.998500 0.031700
vn 0.016700 -0.998500 0.051500
vn -0.016800 -0.998500 0.051600
vn -0.043700 -0.998500 0.031800
vn -0.053800 -0.998600 0.000000
vn -0.043300 -0.998600 -0.031400
vn -0.016500 -0.998600 -0.050700
vn 0.302200 0.208500 -0.930200
vn 0.793600 0.194300 -0.576600
vn 0.986200 0.165700 0.000000
vn 0.801800 0.133200 0.582500
vn 0.307200 0.109400 0.945300
vn -0.307300 0.103900 0.945900
vn -0.803300 0.118700 0.583600
vn -0.989000 0.148000 0.000000
vn -0.795800 0.180200 -0.578200
vn -0.302600 0.203100 -0.931200
vn 0.000000 -1.000000 0.000000
vn -0.309000 0.000000 -0.951100
vn -0.809000 0.000000 -0.587800
vn -1.000000 0.000000 0.000000
vn -0.809000 0.000000 0.587800
vn -0.309000 0.000000 0.951100
vn 0.309000 0.000000 0.951100
vn 0.809000 0.000000 0.587800
vn 1.000000 0.000000 0.000000
vn 0.809000 0.000000 -0.587800
vn 0.309000 0.000000 -0.951100
usemtl mushroom
s off
f 1/1/1 53/2/1 55/3/1
f 2/4/2 6/5/2 4/6/2
f 4/6/3 6/5/3 24/7/3
f 1/1/4 64/8/4 56/9/4
f 2/4/2 8/10/2 6/5/2
f 6/5/5 8/10/5 25/11/5
f 65/12/6 57/13/6 56/9/6
f 2/4/2 10/14/2 8/10/2
f 8/10/7 10/14/7 26/15/7
f 66/16/8 58/17/8 57/13/8
f 2/4/2 12/18/2 10/14/2
f 10/14/9 12/18/9 27/19/9
f 67/20/10 59/21/10 58/17/10
f 2/4/2 14/22/2 12/18/2
f 27/19/11 12/18/11 14/22/11
f 68/23/12 60/24/12 59/21/12
f 2/4/2 16/25/2 14/22/2
f 14/22/13 16/25/13 29/26/13
f 69/27/14 61/28/14 60/24/14
f 2/4/2 18/29/2 16/25/2
f 16/25/15 18/29/15 30/30/15
f 70/31/16 62/32/16 61/28/16
f 2/4/2 20/33/2 18/29/2
f 18/29/17 20/33/17 31/34/17
f 72/35/18 63/36/18 62/37/18
f 2/4/2 22/38/2 20/33/2
f 20/33/19 22/38/19 32/39/19
f 71/40/20 55/3/20 63/36/20
f 2/4/2 4/6/2 22/38/2
f 22/38/21 4/6/21 23/41/21
f 32/39/22 23/41/22 43/42/22
f 31/34/23 32/39/23 52/43/23
f 30/30/24 31/34/24 51/44/24
f 29/26/25 30/30/25 50/45/25
f 28/46/26 29/26/26 49/47/26
f 47/48/27 27/19/27 28/46/27
f 46/49/28 26/15/28 27/19/28
f 45/50/29 25/11/29 26/15/29
f 44/51/30 24/7/30 25/11/30
f 43/42/31 23/41/31 24/7/31
f 3/52/32 42/53/32 33/54/32
f 5/55/33 33/54/33 34/56/33
f 7/57/34 34/56/34 35/58/34
f 9/59/35 35/58/35 36/60/35
f 11/61/36 36/60/36 37/62/36
f 37/62/37 38/63/37 15/64/37
f 38/63/38 39/65/38 17/66/38
f 39/65/39 40/67/39 19/68/39
f 40/69/40 41/70/40 21/71/40
f 41/70/41 42/53/41 3/52/41
f 43/42/42 44/51/42 33/72/42
f 44/51/43 45/50/43 34/73/43
f 45/50/44 46/49/44 35/74/44
f 46/49/45 47/48/45 36/75/45
f 47/48/46 48/76/46 37/77/46
f 37/77/47 48/76/47 49/47/47
f 38/78/48 49/47/48 50/45/48
f 39/79/49 50/45/49 51/44/49
f 40/80/50 51/44/50 52/43/50
f 41/81/51 52/43/51 43/42/51
f 54/82/52 55/3/52 53/2/52
f 54/82/52 53/2/52 56/9/52
f 54/82/52 56/9/52 57/13/52
f 54/82/52 57/13/52 58/17/52
f 54/83/52 58/17/52 59/21/52
f 54/83/52 59/21/52 60/24/52
f 54/83/52 60/24/52 61/28/52
f 54/83/52 61/28/52 62/32/52
f 54/82/52 62/37/52 63/36/52
f 54/82/52 63/36/52 55/3/52
f 3/52/53 71/40/53 72/35/53
f 21/71/54 72/35/54 70/84/54
f 19/68/55 70/31/55 69/27/55
f 17/66/56 69/27/56 68/23/56
f 15/64/57 68/23/57 67/20/57
f 13/85/58 67/20/58 66/16/58
f 11/61/59 66/16/59 65/12/59
f 9/59/60 65/12/60 64/8/60
f 7/57/61 64/8/61 1/1/61
f 5/55/62 1/1/62 71/40/62
f 71/40/1 1/1/1 55/3/1
f 23/41/3 4/6/3 24/7/3
f 53/2/4 1/1/4 56/9/4
f 24/7/5 6/5/5 25/11/5
f 64/8/6 65/12/6 56/9/6
f 25/11/7 8/10/7 26/15/7
f 65/12/8 66/16/8 57/13/8
f 26/15/9 10/14/9 27/19/9
f 66/16/10 67/20/10 58/17/10
f 28/46/11 27/19/11 14/22/11
f 67/20/12 68/23/12 59/21/12
f 28/46/13 14/22/13 29/26/13
f 68/23/14 69/27/14 60/24/14
f 29/26/15 16/25/15 30/30/15
f 69/27/16 70/31/16 61/28/16
f 30/30/17 18/29/17 31/34/17
f 70/84/18 72/35/18 62/37/18
f 31/34/19 20/33/19 32/39/19
f 72/35/20 71/40/20 63/36/20
f 32/39/21 22/38/21 23/41/21
f 52/43/22 32/39/22 43/42/22
f 51/44/23 31/34/23 52/43/23
f 50/45/24 30/30/24 51/44/24
f 49/47/25 29/26/25 50/45/25
f 48/76/26 28/46/26 49/47/26
f 48/76/27 47/48/27 28/46/27
f 47/48/28 46/49/28 27/19/28
f 46/49/29 45/50/29 26/15/29
f 45/50/30 44/51/30 25/11/30
f 44/51/31 43/42/31 24/7/31
f 5/55/32 3/52/32 33/54/32
f 7/57/33 5/55/33 34/56/33
f 9/59/34 7/57/34 35/58/34
f 11/61/35 9/59/35 36/60/35
f 13/85/36 11/61/36 37/62/36
f 13/85/37 37/62/37 15/64/37
f 15/64/38 38/63/38 17/66/38
f 17/66/39 39/65/39 19/68/39
f 19/86/40 40/69/40 21/71/40
f 21/71/41 41/70/41 3/52/41
f 42/87/42 43/42/42 33/72/42
f 33/72/43 44/51/43 34/73/43
f 34/73/44 45/50/44 35/74/44
f 35/74/45 46/49/45 36/75/45
f 36/75/46 47/48/46 37/77/46
f 38/78/47 37/77/47 49/47/47
f 39/79/48 38/78/48 50/45/48
f 40/80/49 39/79/49 51/44/49
f 41/81/50 40/80/50 52/43/50
f 42/87/51 41/81/51 43/42/51
f 21/71/53 3/52/53 72/35/53
f 19/86/54 21/71/54 70/84/54
f 17/66/55 19/68/55 69/27/55
f 15/64/56 17/66/56 68/23/56
f 13/85/57 15/64/57 67/20/57
f 11/61/58 13/85/58 66/16/58
f 9/59/59 11/61/59 65/12/59
f 7/57/60 9/59/60 64/8/60
f 5/55/61 7/57/61 1/1/61
f 3/52/62 5/55/62 71/40/62
